<svg width="512" height="512" viewBox="0 0 512 512" fill="none" xmlns="http://www.w3.org/2000/svg">
  <rect width="512" height="512" rx="120" fill="#1B1D3A"/>
  <path d="M149 363L363 149" stroke="#D8B46A" stroke-width="44" stroke-linecap="round"/>
  <path d="M191 149C191 172.196 172.196 191 149 191C125.804 191 107 172.196 107 149C107 125.804 125.804 107 149 107C172.196 107 191 125.804 191 149Z" fill="#D8B46A"/>
  <path d="M405 363C405 386.196 386.196 405 363 405C339.804 405 321 386.196 321 363C321 339.804 339.804 321 363 321C386.196 321 405 339.804 405 363Z" fill="#D8B46A"/>
  <path d="M212 299C212 311.15 202.15 321 190 321C177.85 321 168 311.15 168 299C168 286.85 177.85 277 190 277C202.15 277 212 286.85 212 299Z" fill="#D8B46A"/>
</svg>